<svg xmlns="http://www.w3.org/2000/svg" xmlns:xlink="http://www.w3.org/1999/xlink" version="1.1" x="0px" y="0px" viewBox="0 0 100 100" enable-background="new 0 0 100 100" xml:space="preserve"><path d="M89,47h-9.152c-0.601-6.025-2.993-11.527-6.633-15.973l6.483-6.483c1.172-1.172,1.172-3.07,0-4.242  s-3.07-1.172-4.242,0l-6.483,6.483c-4.446-3.64-9.948-6.032-15.973-6.633V11c0-1.657-1.342-3-3-3s-3,1.343-3,3v9.152  c-6.025,0.601-11.527,2.993-15.973,6.633l-6.483-6.483c-1.172-1.172-3.07-1.172-4.242,0s-1.172,3.07,0,4.242l6.483,6.483  c-3.64,4.445-6.032,9.948-6.633,15.973H11c-1.658,0-3,1.343-3,3s1.342,3,3,3h9.152c0.601,6.025,2.993,11.527,6.633,15.973  l-6.483,6.483c-1.172,1.172-1.172,3.07,0,4.242c1.172,1.172,3.07,1.172,4.242,0l6.483-6.483c4.446,3.64,9.948,6.032,15.973,6.633V89  c0,1.657,1.342,3,3,3s3-1.343,3-3v-9.152c6.025-0.601,11.527-2.993,15.973-6.633l6.483,6.483c1.172,1.172,3.07,1.172,4.242,0  c1.172-1.172,1.172-3.07,0-4.242l-6.483-6.483c3.64-4.445,6.032-9.948,6.633-15.973H89c1.658,0,3-1.343,3-3S90.658,47,89,47z   M70.76,47h-9.187c-1.091-4.196-4.377-7.483-8.574-8.574V29.24C62.176,30.562,69.438,37.823,70.76,47z M50,56c-3.308,0-6-2.691-6-6  s2.692-6,6-6s6,2.691,6,6S53.308,56,50,56z M47,29.24v9.186c-4.197,1.091-7.483,4.378-8.574,8.574H29.24  C30.562,37.823,37.824,30.562,47,29.24z M29.24,53h9.186c1.091,4.196,4.377,7.483,8.574,8.574v9.186  C37.824,69.438,30.562,62.177,29.24,53z M53,70.76v-9.186c4.197-1.091,7.483-4.378,8.574-8.574h9.187  C69.438,62.177,62.176,69.438,53,70.76z"></path></svg>